<svg xmlns="http://www.w3.org/2000/svg" width="27.856" height="25" viewBox="0 0 27.856 25"><defs><style>.a{fill:#707070;}</style></defs><path class="a" d="M12.469,0A12.49,12.49,0,0,1,24.948,12.5h-1.36a11.116,11.116,0,1,0-11.12,11.138V25A12.5,12.5,0,0,1,3.645,3.662,12.43,12.43,0,0,1,12.469,0Z" transform="translate(0.01)"/><ellipse class="a" cx="0.691" cy="0.691" rx="0.691" ry="0.691" transform="translate(11.81 23.618)"/><g transform="translate(20.352 8.864)"><rect class="a" width="1.316" height="5.243" rx="0.658" transform="matrix(0.615, -0.788, 0.788, 0.615, 0, 1.623)"/><rect class="a" width="1.316" height="5.243" rx="0.658" transform="translate(4.116 4.851) rotate(-139.732)"/></g><path class="a" d="M280.793,220.966l.549-5.286h4.765v1.144h-3.68l-.308,2.739a2.9,2.9,0,0,1,.68-.377,2.387,2.387,0,0,1,.85-.154,2.585,2.585,0,0,1,2.068.827,3.868,3.868,0,0,1-.02,4.6,2.834,2.834,0,0,1-2.237.87,3.079,3.079,0,0,1-2.012-.66,2.283,2.283,0,0,1-.772-1.941l.013-.04h1.162a1.583,1.583,0,0,0,.448,1.2,1.609,1.609,0,0,0,1.16.428,1.52,1.52,0,0,0,1.267-.573,2.492,2.492,0,0,0,.453-1.577,2.265,2.265,0,0,0-.455-1.47,1.537,1.537,0,0,0-1.265-.562,2.018,2.018,0,0,0-1.1.23,1.334,1.334,0,0,0-.5.7l-1.064-.111Z" transform="translate(-270.636 -208.007)"/></svg>