<svg xmlns="http://www.w3.org/2000/svg" width="27.856" height="25" viewBox="0 0 27.856 25"><defs><style>.a{fill:#707070;}</style></defs><path class="a" d="M111.218,0a12.5,12.5,0,0,0-12.5,12.5h1.362a11.137,11.137,0,1,1,11.137,11.138V25a12.5,12.5,0,0,0,0-25Z" transform="translate(-95.861 0)"/><circle class="a" cx="0.682" cy="0.682" r="0.682" transform="translate(14.674 23.637)"/><g transform="translate(0 8.892)"><rect class="a" width="1.299" height="5.173" rx="0.649" transform="translate(3.327 4.785) rotate(-127.978)"/><rect class="a" width="1.299" height="5.173" rx="0.649" transform="translate(0 0.839) rotate(-40.268)"/></g><path class="a" d="M461.4,300.376l.542-5.216h4.7v1.129h-3.632l-.3,2.7a2.879,2.879,0,0,1,.671-.372,2.347,2.347,0,0,1,.839-.152,2.552,2.552,0,0,1,2.04.816,3.817,3.817,0,0,1-.02,4.543,2.8,2.8,0,0,1-2.208.858,3.039,3.039,0,0,1-1.985-.652,2.252,2.252,0,0,1-.762-1.915l.013-.04h1.147a1.563,1.563,0,0,0,.443,1.189,1.587,1.587,0,0,0,1.144.423,1.5,1.5,0,0,0,1.25-.566,2.461,2.461,0,0,0,.447-1.556,2.235,2.235,0,0,0-.449-1.45,1.517,1.517,0,0,0-1.248-.555,1.994,1.994,0,0,0-1.083.227,1.317,1.317,0,0,0-.5.7l-1.05-.11Z" transform="translate(-448.917 -287.423)"/></svg>