<svg xmlns="http://www.w3.org/2000/svg" width="27.842" height="26.913" viewBox="0 0 27.842 26.913"><defs><style>.a{fill:#5a5a5a;fill-rule:evenodd;}</style></defs><g transform="translate(0.01 0.004)"><path class="a" d="M13.951,6.975A6.485,6.485,0,1,1,7.9,13.885a6.482,6.482,0,0,1,6.047-6.91ZM3.129,10.315h.027a11.482,11.482,0,0,1,.514-1.49A12.043,12.043,0,0,1,4.742,6.875a1.148,1.148,0,0,0,.169-.262c-.2-.212-.386-.4-.589-.612-.174-.181-.467-.376-.423-.8.035-.341.326-.544.493-.707L5.318,3.6c.266-.257.623-.781,1.041-.815.65-.054,1.027.84,1.428,1.051a11.5,11.5,0,0,1,2.08-1.142,12.659,12.659,0,0,1,1.2-.428c.443-.135.89-.191,1.318-.317.006-.528-.12-1.414.21-1.731s1.239-.2,1.774-.2h.986c.381,0,.547-.023.785.2.22.208.219.39.218.754,0,.329,0,.661,0,.99a11.365,11.365,0,0,1,4.332,1.685c.181.114.341.251.518.344.53-.421.917-1.092,1.418-1.083.379.006.6.328.766.5l.637.626c.214.221.407.421.62.643.177.183.775.7.284,1.218l-.945.964a11.687,11.687,0,0,1,1.865,4.594c2.257-.024,1.959-.2,1.961,2.95,0,.355.028.574-.2.8s-.377.223-.768.223c-.329,0-.659,0-.988,0a11.58,11.58,0,0,1-1.624,4.227c-.108.179-.246.352-.337.516.369.507,1.1.909,1.11,1.417.01.423-.453.757-.8,1.089-.114.109-.2.224-.313.334l-.643.621c-.173.166-.394.477-.78.474a1.126,1.126,0,0,1-.775-.479c-.21-.215-.422-.425-.617-.641l-1,.621c-.352.193-.719.382-1.114.55a13.371,13.371,0,0,1-2.559.768c-.016.56.131,1.421-.21,1.763-.314.314-1.24.2-1.771.2h-.986c-.361,0-.564.024-.785-.2-.407-.412-.138-1.123-.234-1.74a15.154,15.154,0,0,1-2.635-.783,11.763,11.763,0,0,1-1.676-.883,3.537,3.537,0,0,0-.527-.336,7.333,7.333,0,0,1-.619.61c-.191.186-.36.483-.8.449a1.3,1.3,0,0,1-.743-.5L4.221,22.25c-.163-.17-.479-.38-.486-.752a1.024,1.024,0,0,1,.47-.768l.559-.578h0a.415.415,0,0,1,.586.586h0l-.328.347c-.139.134-.252.246-.394.381.084.158,1.381,1.437,1.607,1.653.684-.608,1.117-1.365,1.779-.906A11.237,11.237,0,0,0,9.886,23.3a10.811,10.811,0,0,0,2.222.734c.472.1.83.078,1.052.428a4.6,4.6,0,0,1,.106,1.594l2.319.006c.01-1.61-.2-1.766.974-2.01A10.969,10.969,0,0,0,19.8,22.822l.917-.594c.615-.377,1.014.245,1.39.629a4.156,4.156,0,0,0,.408.366c.1-.143.568-.536.794-.806l.826-.8a10.1,10.1,0,0,0-.712-.75c-.193-.2-.578-.508-.3-1.009l.583-.9a10.656,10.656,0,0,0,1.262-3.207c.108-.492.069-.813.434-1.043a4.675,4.675,0,0,1,1.6-.1V12.282a9.959,9.959,0,0,1-1.437-.029c-.436-.13-.46-.433-.558-.923a10.617,10.617,0,0,0-.708-2.248c-.159-.351-.316-.659-.5-.984-.208-.376-.422-.642-.573-.906-.276-.483.046-.792.272-1.01.248-.238.492-.5.732-.741a9.793,9.793,0,0,0-.791-.837c-.272-.281-.574-.528-.815-.815a7.047,7.047,0,0,1-1.182,1.044c-.493.146-.859-.306-1.534-.7a10.533,10.533,0,0,0-3.3-1.288c-.507-.1-.828-.1-1.008-.5A6.873,6.873,0,0,1,15.534.852c-.211-.029-2.163-.031-2.319.006v.206c0,.734.153,1.5-.527,1.674-.357.093-.735.141-1.092.235a12.436,12.436,0,0,0-3.61,1.69c-.537.187-.837-.28-1.221-.674L6.42,3.669,5.193,4.862a1.941,1.941,0,0,0-.41.426c.592.725,1.392,1.035.808,1.821A10.019,10.019,0,0,0,3.977,10.43a3.141,3.141,0,1,1-.849-.117Zm1.648,1.49a2.331,2.331,0,1,0,.683,1.648A2.324,2.324,0,0,0,4.777,11.805Zm8.837-5.63A7.31,7.31,0,1,0,20.12,17.97c.061-.077.132-.179.2-.267a7.308,7.308,0,0,0-6.7-11.529Z"/></g></svg>